<mxfile host="app.diagrams.net" modified="2023-08-30T18:26:56.874Z" agent="Mozilla/5.0 (Macintosh; Intel Mac OS X 10_15_7) AppleWebKit/537.36 (KHTML, like Gecko) Chrome/115.0.0.0 Safari/537.36" etag="nYPtclcL3BybxJG7tCop" version="21.6.9" type="github">
  <diagram name="Page-1" id="_AB0pGBRDT0fqDV13F5g">
    <mxGraphModel dx="2074" dy="1150" grid="1" gridSize="10" guides="1" tooltips="1" connect="1" arrows="1" fold="1" page="1" pageScale="1" pageWidth="850" pageHeight="1100" math="0" shadow="0">
      <root>
        <mxCell id="0" />
        <mxCell id="1" parent="0" />
        <mxCell id="dlxoFUxfWkp-zWLIpVi0-3" value="" style="edgeStyle=orthogonalEdgeStyle;rounded=0;orthogonalLoop=1;jettySize=auto;html=1;" edge="1" parent="1" source="dlxoFUxfWkp-zWLIpVi0-1" target="dlxoFUxfWkp-zWLIpVi0-2">
          <mxGeometry relative="1" as="geometry" />
        </mxCell>
        <mxCell id="dlxoFUxfWkp-zWLIpVi0-1" value="&lt;font style=&quot;font-size: 20px;&quot;&gt;Intra Card Sync&lt;/font&gt;" style="rounded=0;whiteSpace=wrap;html=1;" vertex="1" parent="1">
          <mxGeometry x="280" y="280" width="200" height="80" as="geometry" />
        </mxCell>
        <mxCell id="dlxoFUxfWkp-zWLIpVi0-5" value="" style="edgeStyle=orthogonalEdgeStyle;rounded=0;orthogonalLoop=1;jettySize=auto;html=1;" edge="1" parent="1" source="dlxoFUxfWkp-zWLIpVi0-2" target="dlxoFUxfWkp-zWLIpVi0-4">
          <mxGeometry relative="1" as="geometry" />
        </mxCell>
        <mxCell id="dlxoFUxfWkp-zWLIpVi0-2" value="&lt;font style=&quot;font-size: 20px;&quot;&gt;TCCL Inter Card Allreduce OP&lt;br&gt;&lt;/font&gt;" style="rounded=0;whiteSpace=wrap;html=1;" vertex="1" parent="1">
          <mxGeometry x="280" y="440" width="200" height="80" as="geometry" />
        </mxCell>
        <mxCell id="dlxoFUxfWkp-zWLIpVi0-4" value="&lt;font style=&quot;font-size: 20px;&quot;&gt;Intra Card Sync&lt;br&gt;&lt;/font&gt;" style="rounded=0;whiteSpace=wrap;html=1;" vertex="1" parent="1">
          <mxGeometry x="280" y="600" width="200" height="80" as="geometry" />
        </mxCell>
        <mxCell id="dlxoFUxfWkp-zWLIpVi0-8" value="" style="edgeStyle=orthogonalEdgeStyle;rounded=0;orthogonalLoop=1;jettySize=auto;html=1;" edge="1" parent="1" source="dlxoFUxfWkp-zWLIpVi0-7" target="dlxoFUxfWkp-zWLIpVi0-1">
          <mxGeometry relative="1" as="geometry" />
        </mxCell>
        <mxCell id="dlxoFUxfWkp-zWLIpVi0-7" value="&lt;font style=&quot;font-size: 20px;&quot;&gt;TCCL Pre Work&lt;/font&gt;" style="rounded=0;whiteSpace=wrap;html=1;" vertex="1" parent="1">
          <mxGeometry x="280" y="120" width="200" height="80" as="geometry" />
        </mxCell>
      </root>
    </mxGraphModel>
  </diagram>
</mxfile>
